# xmcd
#
# Track frame offsets:
#	151
#	24180
#	41181
#	58940
#	76089
#	94974
#	122893
#	144728
#	160745
#
# Disc length: 2473 seconds
#
# Revision: 0
# Processed by: cddbd v1.5.2PL0 Copyright (c) Steve Scherf et al.
# Submitted via: EasyCDDAExtractor 10.5.1.1
#
DISCID=7509a709
DTITLE=The Emotions - Sincerely
DYEAR=1984
DGENRE=R&B
TTITLE0=All Things Come In Time
TTITLE1=Are You Through With My Heart
TTITLE2=You're The One
TTITLE3=Can't Blow Out The Candle
TTITLE4=Sincerely
TTITLE5=You're The Best
TTITLE6=You Know I'm The One
TTITLE7=Never Let Another
TTITLE8=I Can Do Anything
EXTD=
EXTT0=
EXTT1=
EXTT2=
EXTT3=
EXTT4=
EXTT5=
EXTT6=
EXTT7=
EXTT8=
PLAYORDER=
